<svg width="1280" viewBox="0 0 680 340" xmlns="http://www.w3.org/2000/svg"><rect x="0" y="0" width="680" height="340" fill="#0a0610"/><g opacity="0.05"><circle cx="100" cy="170" r="200" fill="none" stroke="#9f5fff" stroke-width="0.3"/><circle cx="100" cy="170" r="160" fill="none" stroke="#9f5fff" stroke-width="0.3"/><circle cx="100" cy="170" r="120" fill="none" stroke="#9f5fff" stroke-width="0.3"/><circle cx="580" cy="170" r="200" fill="none" stroke="#ff6b9f" stroke-width="0.3"/><circle cx="580" cy="170" r="160" fill="none" stroke="#ff6b9f" stroke-width="0.3"/><circle cx="580" cy="170" r="120" fill="none" stroke="#ff6b9f" stroke-width="0.3"/></g><rect x="38" y="100" width="44" height="44" rx="4" fill="#1a1228" stroke="#7f4fbf" stroke-width="0.8" opacity="0.9"/><rect x="40" y="102" width="12" height="12" rx="1" fill="#c084fc" opacity="0.6"/><rect x="54" y="102" width="12" height="12" rx="1" fill="#a855f7" opacity="0.5"/><rect x="68" y="102" width="12" height="12" rx="1" fill="#9333ea" opacity="0.4"/><rect x="40" y="116" width="12" height="12" rx="1" fill="#a855f7" opacity="0.5"/><rect x="54" y="116" width="12" height="12" rx="1" fill="#7c3aed" opacity="0.6"/><rect x="68" y="116" width="12" height="12" rx="1" fill="#c084fc" opacity="0.4"/><rect x="40" y="130" width="12" height="12" rx="1" fill="#9333ea" opacity="0.4"/><rect x="54" y="130" width="12" height="12" rx="1" fill="#c084fc" opacity="0.5"/><rect x="68" y="130" width="12" height="12" rx="1" fill="#a855f7" opacity="0.6"/><rect x="28" y="156" width="44" height="44" rx="4" fill="#1a1228" stroke="#7f4fbf" stroke-width="0.8" opacity="0.8"/><circle cx="42" cy="170" r="4" fill="#c084fc" opacity="0.5"/><circle cx="56" cy="178" r="5" fill="#a855f7" opacity="0.4"/><circle cx="50" cy="164" r="3" fill="#9333ea" opacity="0.6"/><rect x="48" y="210" width="44" height="44" rx="4" fill="#1a1228" stroke="#7f4fbf" stroke-width="0.8" opacity="0.7"/><path d="M56 228 L70 220 L76 236 L62 244 Z" fill="#a855f7" opacity="0.4"/><path d="M60 224 L72 232 L68 242" fill="none" stroke="#c084fc" stroke-width="0.8" opacity="0.5"/><line x1="82" y1="122" x2="140" y2="155" stroke="#9f5fff" stroke-width="0.8" opacity="0.4"/><line x1="72" y1="178" x2="140" y2="170" stroke="#9f5fff" stroke-width="0.8" opacity="0.4"/><line x1="92" y1="232" x2="140" y2="185" stroke="#9f5fff" stroke-width="0.8" opacity="0.4"/><circle cx="105" cy="140" r="1.5" fill="#c084fc" opacity="0.6"/><circle cx="95" cy="175" r="1.5" fill="#c084fc" opacity="0.5"/><circle cx="110" cy="205" r="1.5" fill="#c084fc" opacity="0.5"/><g transform="translate(170, 130)"><rect x="0" y="0" width="80" height="80" rx="12" fill="#12081f" stroke="#ff6b9f" stroke-width="1.2" opacity="0.9"/><circle cx="20" cy="20" r="4" fill="#ff6b9f" opacity="0.7"/><circle cx="40" cy="16" r="3.5" fill="#c084fc" opacity="0.6"/><circle cx="60" cy="22" r="4" fill="#ff6b9f" opacity="0.7"/><circle cx="16" cy="40" r="3.5" fill="#c084fc" opacity="0.6"/><circle cx="40" cy="40" r="5" fill="#ff6b9f" opacity="0.9"/><circle cx="64" cy="40" r="3.5" fill="#c084fc" opacity="0.6"/><circle cx="20" cy="60" r="4" fill="#ff6b9f" opacity="0.7"/><circle cx="40" cy="64" r="3.5" fill="#c084fc" opacity="0.6"/><circle cx="60" cy="58" r="4" fill="#ff6b9f" opacity="0.7"/><line x1="20" y1="20" x2="40" y2="40" stroke="#ff6b9f" stroke-width="0.5" opacity="0.4"/><line x1="60" y1="22" x2="40" y2="40" stroke="#ff6b9f" stroke-width="0.5" opacity="0.4"/><line x1="40" y1="16" x2="40" y2="40" stroke="#c084fc" stroke-width="0.5" opacity="0.3"/><line x1="16" y1="40" x2="40" y2="40" stroke="#c084fc" stroke-width="0.5" opacity="0.3"/><line x1="64" y1="40" x2="40" y2="40" stroke="#c084fc" stroke-width="0.5" opacity="0.3"/><line x1="40" y1="40" x2="20" y2="60" stroke="#ff6b9f" stroke-width="0.5" opacity="0.4"/><line x1="40" y1="40" x2="60" y2="58" stroke="#ff6b9f" stroke-width="0.5" opacity="0.4"/><line x1="40" y1="40" x2="40" y2="64" stroke="#c084fc" stroke-width="0.5" opacity="0.3"/><text x="40" y="44" text-anchor="middle" font-family="monospace" font-size="6" fill="#ff6b9f" opacity="0.6">LoRA</text></g><line x1="250" y1="170" x2="320" y2="170" stroke="#ff6b9f" stroke-width="1" opacity="0.5"/><circle cx="270" cy="170" r="2" fill="#ff6b9f" opacity="0.6"/><circle cx="290" cy="170" r="2" fill="#ff6b9f" opacity="0.5"/><circle cx="310" cy="170" r="2" fill="#ff6b9f" opacity="0.4"/><text x="285" y="160" text-anchor="middle" font-family="monospace" font-size="7" fill="#ff6b9f" opacity="0.4">.safetensors</text><g transform="translate(320, 100)"><rect x="0" y="0" width="56" height="56" rx="6" fill="#1f0a28" stroke="#ff6b9f" stroke-width="1" opacity="0.8"/><path d="M8 8 C15 12, 22 8, 28 14 C34 20, 28 28, 34 34 C40 40, 46 36, 48 42" fill="none" stroke="#c084fc" stroke-width="1.2" opacity="0.5"/></g><g transform="translate(320, 170)"><rect x="0" y="0" width="56" height="56" rx="6" fill="#1f0a28" stroke="#ff6b9f" stroke-width="1" opacity="0.8"/><circle cx="20" cy="18" r="6" fill="#c084fc" opacity="0.3"/><path d="M8 42 C16 30, 24 36, 28 28 C32 20, 38 24, 48 22" fill="none" stroke="#ff6b9f" stroke-width="0.8" opacity="0.5"/></g><g transform="translate(395, 120)"><rect x="0" y="0" width="56" height="56" rx="6" fill="#1f0a28" stroke="#ff6b9f" stroke-width="1" opacity="0.8"/><path d="M10 46 L18 28 L26 36 L34 18 L42 30 L48 14" fill="none" stroke="#c084fc" stroke-width="1" opacity="0.5"/></g><g transform="translate(395, 185)"><rect x="0" y="0" width="56" height="56" rx="6" fill="#1f0a28" stroke="#ff6b9f" stroke-width="1" opacity="0.7"/><circle cx="28" cy="22" r="10" fill="#c084fc" opacity="0.2"/><path d="M14 38 C20 30, 28 32, 36 28" fill="none" stroke="#ff6b9f" stroke-width="0.8" opacity="0.4"/></g><text x="470" y="175" font-family="monospace" font-size="7" fill="#9f5fff" opacity="0.3">x100</text><text x="340" y="42" text-anchor="middle" font-family="monospace" font-size="32" font-weight="700" fill="#e8d0ff" letter-spacing="3">lora-forge</text><text x="340" y="66" text-anchor="middle" font-family="monospace" font-size="10" fill="#9f5fff" letter-spacing="3" opacity="0.6">SOVEREIGN LORA FACTORY</text><text x="60" y="278" font-family="monospace" font-size="7" fill="#7f4fbf" opacity="0.35">source images</text><text x="200" y="278" font-family="monospace" font-size="7" fill="#ff6b9f" opacity="0.35">train</text><text x="370" y="278" font-family="monospace" font-size="7" fill="#ff6b9f" opacity="0.35">generate</text><line x1="80" y1="315" x2="600" y2="315" stroke="#2a1640" stroke-width="0.5" opacity="0.4"/><text x="340" y="330" text-anchor="middle" font-family="monospace" font-size="11" fill="#7a5a9a" letter-spacing="5" opacity="0.45">ONTOS LABS</text><rect x="0" y="0" width="680" height="340" fill="none" stroke="#2a1640" stroke-width="1" opacity="0.4"/></svg>